{"title":"Chal Gaja Karu Maja 2010 Marathi 720p Untouchd HD x264 AAC [TMB]","uid":15547497,"size":1563997713,"categoryP":"video","categoryS":"movies","magnet":"?xt=urn:btih:667a3e9fe8807fd4f6a74ed73fa1bd739633c726&amp;dn=Chal+Gaja+Karu+Maja+2010+Marathi+720p+Untouchd+HD+x264+AAC+%5BTMB%5D&amp;tr=udp%3A%2F%2Ftracker.leechers-paradise.org%3A6969&amp;tr=udp%3A%2F%2Fzer0day.ch%3A1337&amp;tr=udp%3A%2F%2Fopen.demonii.com%3A1337&amp;tr=udp%3A%2F%2Ftracker.coppersurfer.tk%3A6969&amp;tr=udp%3A%2F%2Fexodus.desync.com%3A6969","seeders":0,"leechers":1,"uploader":"Manoj_vb","files":1,"time":1470990603,"description":"http://i1306.photobucket.com/albums/s570/zyx55e/44_zpsc46e809d.gif\r\n \nhttp://s25.postimg.org/ogudjszr3/maxresdefault.jpg\r\n \nhttp://s25.postimg.org/4tvyu6vi7/vlcsnap_0178_02_12_10h42m59s166.png\r\n \nhttp://s25.postimg.org/fhzpt15hb/vlcsnap_1658_05_17_08h04m02s359.png\r\n \nhttp://s25.postimg.org/t7u91tslb/vlcsnap_2226_03_17_14h02m32s011.png\r\n \nhttp://s25.postimg.org/i6z3wt0cf/vlcsnap_2448_04_09_19h50m01s059.png\r\n \nhttp://s25.postimg.org/9l0fpydq7/vlcsnap_2510_12_16_14h40m10s725.png\r\n \nhttp://s25.postimg.org/5d123gmwv/vlcsnap_3737_06_03_15h01m56s859.png\r\n \nhttp://s25.postimg.org/ghq0oqkn3/vlcsnap_5421_02_12_07h16m15s038.png\r\n \nhttp://s25.postimg.org/r0q0dwnb3/vlcsnap_8943_03_04_04h43m44s033.png\r\n \nhttp://s25.postimg.org/vvjpc6lmn/vlcsnap_9186_02_15_04h04m59s522.png\r\n \nhttp://s25.postimg.org/j2vlc9a0v/vlcsnap_9790_07_17_04h30m16s310.png\r\n \nhttp://i1306.photobucket.com/albums/s570/zyx55e/oie_11162011MOJeDGQI_zpsc25b2b81.gif\r\n\r\nGeneral\r\nComplete name               : Chal Gaja Karu Maja 2010 720p Untouched WebHD x264 AAC [TMB].mp4\r\nFormat                      : MPEG-4\r\nFormat profile              : Base Media / Version 2\r\nCodec ID                    : mp42 (isom/mp42)\r\nFile size                   : 1.46 GiB\r\nDuration                    : 2h 5mn\r\nOverall bit rate mode       : Variable\r\nOverall bit rate            : 1 667 Kbps\r\n\r\nVideo\r\nFormat                      : AVC\r\nFormat/Info                 : Advanced Video Codec\r\nFormat profile              :   \r\nFormat settings, CABAC      : Yes\r\nFormat settings, ReFrames   : 1 frame\r\nCodec ID                    : avc1\r\nCodec ID/Info               : Advanced Video Coding\r\nDuration                    : 2h 5mn\r\nBit rate                    : 1 473 Kbps\r\nMaximum bit rate            : 4 947 Kbps\r\nWidth                       : 1 280 pixels\r\nHeight                      : 720 pixels\r\nDisplay aspect ratio        : 16:9\r\nFrame rate mode             : Constant\r\nFrame rate                  : 25.000 fps\r\nColor space                 : YUV\r\nChroma subsampling          : 4:2:0\r\nBit depth                   : 8 bits\r\nScan type                   : Progressive\r\nBits/(Pixel*Frame)          : 0.064\r\nStream size                 : 1.29 GiB (88%)\r\n\r\nAudio\r\nFormat                      : AAC\r\nFormat/Info                 : Advanced Audio Codec\r\nFormat profile              : LC\r\nCodec ID                    : 40\r\nDuration                    : 2h 5mn\r\nBit rate mode               : Variable\r\nBit rate                    : 192 Kbps\r\nMaximum bit rate            : 201 Kbps\r\nChannel(s)                  : 2 channels\r\nChannel positions           : Front: L R\r\nSampling rate               : 44.1 KHz\r\nFrame rate                  : 43.066 fps (1024 spf)\r\nCompression mode            : Lossy\r\nStream size                 : 172 MiB (12%)\r\n\r\nShared by Manojvb\r\n\r\nSeeding 24x7... Extreme Seeding...\r\n \nhttp://i1306.photobucket.com/albums/s570/zyx55e/oie_1117625zVIGKvnK_zpsc8b6e055.gif","torrent":{"xt":"urn:btih:667a3e9fe8807fd4f6a74ed73fa1bd739633c726","amp;dn":"Chal+Gaja+Karu+Maja+2010+Marathi+720p+Untouchd+HD+x264+AAC+%5BTMB%5D","amp;tr":["udp%3A%2F%2Ftracker.leechers-paradise.org%3A6969","udp%3A%2F%2Fzer0day.ch%3A1337","udp%3A%2F%2Fopen.demonii.com%3A1337","udp%3A%2F%2Ftracker.coppersurfer.tk%3A6969","udp%3A%2F%2Fexodus.desync.com%3A6969"],"infoHash":"667a3e9fe8807fd4f6a74ed73fa1bd739633c726","infoHashBuffer":{"type":"Buffer","data":[102,122,62,159,232,128,127,212,246,167,78,215,63,161,189,115,150,51,199,38]},"announce":[],"urlList":[]}}